<mxfile host="app.diagrams.net" modified="2023-10-10T22:03:53.857Z" agent="Mozilla/5.0 (Windows NT 10.0; Win64; x64) AppleWebKit/537.36 (KHTML, like Gecko) Chrome/117.0.0.0 Safari/537.36 Edg/117.0.2045.36" version="22.0.4" etag="Bf-DWY3OBx5RFvvt_CKp" type="github">
  <diagram name="PÃ¡gina-1" id="S4z4cCfTyq38BXAdXWxW">
    <mxGraphModel>
      <root>
        <mxCell id="0" />
        <mxCell id="1" parent="0" />
      </root>
    </mxGraphModel>
  </diagram>
</mxfile>
